<svg width="111" height="30" viewBox="0 0 111 30" fill="none" xmlns="http://www.w3.org/2000/svg">
<path d="M13.0186 15.8516H17.7646C17.6865 17.3164 17.2861 18.6104 16.5635 19.7334C15.8506 20.8467 14.8594 21.7207 13.5898 22.3555C12.3203 22.9805 10.8115 23.293 9.06348 23.293C7.66699 23.293 6.41699 23.0537 5.31348 22.5752C4.20996 22.0967 3.27246 21.4131 2.50098 20.5244C1.73926 19.626 1.15332 18.5469 0.743164 17.2871C0.342773 16.0176 0.142578 14.5869 0.142578 12.9951V11.6914C0.142578 10.0996 0.352539 8.66895 0.772461 7.39941C1.19238 6.12988 1.79297 5.0459 2.57422 4.14746C3.35547 3.24902 4.29297 2.56055 5.38672 2.08203C6.48047 1.60352 7.70117 1.36426 9.04883 1.36426C10.8652 1.36426 12.3984 1.69141 13.6484 2.3457C14.8984 3 15.8652 3.89844 16.5488 5.04102C17.2422 6.18359 17.6572 7.4873 17.7939 8.95215H13.0332C12.9941 8.12207 12.8379 7.42383 12.5645 6.85742C12.291 6.28125 11.8711 5.84668 11.3047 5.55371C10.7383 5.26074 9.98633 5.11426 9.04883 5.11426C8.36523 5.11426 7.76465 5.24121 7.24707 5.49512C6.73926 5.74902 6.31445 6.14453 5.97266 6.68164C5.64062 7.21875 5.3916 7.90234 5.22559 8.73242C5.05957 9.55273 4.97656 10.5293 4.97656 11.6621V12.9951C4.97656 14.1182 5.0498 15.0898 5.19629 15.9102C5.34277 16.7305 5.57715 17.4092 5.89941 17.9463C6.23145 18.4834 6.65625 18.8838 7.17383 19.1475C7.69141 19.4111 8.32129 19.543 9.06348 19.543C9.91309 19.543 10.6211 19.4111 11.1875 19.1475C11.7539 18.874 12.1885 18.4639 12.4912 17.917C12.7939 17.3701 12.9697 16.6816 13.0186 15.8516ZM24.6494 0.5V23H20.0791V0.5H24.6494ZM24.0488 14.5186L22.9062 14.5479C22.9062 13.4346 23.043 12.4141 23.3164 11.4863C23.5996 10.5488 24 9.7334 24.5176 9.04004C25.0352 8.34668 25.6553 7.80957 26.3779 7.42871C27.1104 7.04785 27.916 6.85742 28.7949 6.85742C29.5762 6.85742 30.2891 6.96973 30.9336 7.19434C31.5781 7.41895 32.1348 7.77539 32.6035 8.26367C33.0723 8.75195 33.4336 9.3916 33.6875 10.1826C33.9414 10.9736 34.0684 11.9355 34.0684 13.0684V23H29.4688V13.0391C29.4688 12.3652 29.3711 11.8379 29.1758 11.457C28.9902 11.0762 28.7168 10.8076 28.3555 10.6514C28.0039 10.4951 27.5742 10.417 27.0664 10.417C26.4707 10.417 25.9775 10.5244 25.5869 10.7393C25.1963 10.9443 24.8887 11.2324 24.6641 11.6035C24.4395 11.9746 24.2783 12.4092 24.1807 12.9072C24.0928 13.4053 24.0488 13.9424 24.0488 14.5186ZM45.4502 19.2207V12.4238C45.4502 11.9453 45.377 11.5352 45.2305 11.1934C45.084 10.8516 44.8545 10.583 44.542 10.3877C44.2295 10.1924 43.8242 10.0947 43.3262 10.0947C42.9062 10.0947 42.54 10.168 42.2275 10.3145C41.9248 10.4609 41.6904 10.6709 41.5244 10.9443C41.3682 11.2178 41.29 11.5547 41.29 11.9551H36.7197C36.7197 11.2422 36.8809 10.5781 37.2031 9.96289C37.5254 9.34766 37.9844 8.80566 38.5801 8.33691C39.1855 7.86816 39.9082 7.50684 40.748 7.25293C41.5879 6.98926 42.5303 6.85742 43.5752 6.85742C44.8154 6.85742 45.9189 7.06738 46.8857 7.4873C47.8623 7.89746 48.6338 8.51758 49.2002 9.34766C49.7666 10.168 50.0498 11.2031 50.0498 12.4531V19.0889C50.0498 20.0459 50.1035 20.7979 50.2109 21.3447C50.3281 21.8818 50.4941 22.3506 50.709 22.751V23H46.0947C45.8799 22.541 45.7188 21.9746 45.6113 21.3008C45.5039 20.6172 45.4502 19.9238 45.4502 19.2207ZM46.0215 13.332L46.0508 15.8516H43.7803C43.2725 15.8516 42.833 15.915 42.4619 16.042C42.1006 16.1689 41.8076 16.3447 41.583 16.5693C41.3584 16.7842 41.1924 17.0381 41.085 17.3311C40.9873 17.6143 40.9385 17.9268 40.9385 18.2686C40.9385 18.5908 41.0166 18.8838 41.1729 19.1475C41.3291 19.4014 41.5439 19.6016 41.8174 19.748C42.0908 19.8945 42.4082 19.9678 42.7695 19.9678C43.3652 19.9678 43.873 19.8506 44.293 19.6162C44.7227 19.3818 45.0547 19.0986 45.2891 18.7666C45.5234 18.4248 45.6406 18.1074 45.6406 17.8145L46.7393 19.7188C46.5635 20.1094 46.3486 20.5146 46.0947 20.9346C45.8408 21.3447 45.5186 21.7305 45.1279 22.0918C44.7373 22.4434 44.2637 22.7314 43.707 22.9561C43.1602 23.1807 42.501 23.293 41.7295 23.293C40.7334 23.293 39.8301 23.0928 39.0195 22.6924C38.209 22.2822 37.5596 21.7207 37.0713 21.0078C36.5928 20.2949 36.3535 19.4746 36.3535 18.5469C36.3535 17.7168 36.5049 16.9795 36.8076 16.335C37.1104 15.6904 37.5645 15.1436 38.1699 14.6943C38.7852 14.2451 39.5566 13.9082 40.4844 13.6836C41.4121 13.4492 42.4961 13.332 43.7363 13.332H46.0215ZM61.1094 7.15039V10.3584H51.7051V7.15039H61.1094ZM53.8584 3.22461H58.4434V18.0342C58.4434 18.4736 58.4971 18.8105 58.6045 19.0449C58.7119 19.2793 58.8877 19.4453 59.1318 19.543C59.376 19.6309 59.6885 19.6748 60.0693 19.6748C60.3428 19.6748 60.5771 19.665 60.7725 19.6455C60.9678 19.626 61.1484 19.6016 61.3145 19.5723V22.8828C60.9238 23.0098 60.5088 23.1074 60.0693 23.1758C59.6299 23.2539 59.1514 23.293 58.6338 23.293C57.6475 23.293 56.793 23.1318 56.0703 22.8096C55.3574 22.4873 54.8105 21.9795 54.4297 21.2861C54.0488 20.583 53.8584 19.6699 53.8584 18.5469V3.22461ZM73.1943 20.29V12.1309C73.1943 11.5059 73.0674 10.9639 72.8135 10.5049C72.5693 10.0361 72.1982 9.6748 71.7002 9.4209C71.2021 9.16699 70.5869 9.04004 69.8545 9.04004C69.1709 9.04004 68.5703 9.15723 68.0527 9.3916C67.5449 9.62598 67.1445 9.93359 66.8516 10.3145C66.5684 10.6953 66.4268 11.1055 66.4268 11.5449H63.7168C63.7168 10.9785 63.8633 10.417 64.1562 9.86035C64.4492 9.30371 64.8691 8.80078 65.416 8.35156C65.9727 7.89258 66.6367 7.53125 67.4082 7.26758C68.1895 6.99414 69.0586 6.85742 70.0156 6.85742C71.168 6.85742 72.1836 7.05273 73.0625 7.44336C73.9512 7.83398 74.6445 8.4248 75.1426 9.21582C75.6504 9.99707 75.9043 10.9785 75.9043 12.1602V19.543C75.9043 20.0703 75.9482 20.6318 76.0361 21.2275C76.1338 21.8232 76.2754 22.3359 76.4609 22.7656V23H73.6338C73.4971 22.6875 73.3896 22.2725 73.3115 21.7549C73.2334 21.2275 73.1943 20.7393 73.1943 20.29ZM73.6631 13.3906L73.6924 15.2949H70.9531C70.1816 15.2949 69.4932 15.3584 68.8877 15.4854C68.2822 15.6025 67.7744 15.7832 67.3643 16.0273C66.9541 16.2715 66.6416 16.5791 66.4268 16.9502C66.2119 17.3115 66.1045 17.7363 66.1045 18.2246C66.1045 18.7227 66.2168 19.1768 66.4414 19.5869C66.666 19.9971 67.0029 20.3242 67.4521 20.5684C67.9111 20.8027 68.4727 20.9199 69.1367 20.9199C69.9668 20.9199 70.6992 20.7441 71.334 20.3926C71.9688 20.041 72.4717 19.6113 72.8428 19.1035C73.2236 18.5957 73.4287 18.1025 73.458 17.624L74.6152 18.9277C74.5469 19.3379 74.3613 19.792 74.0586 20.29C73.7559 20.7881 73.3506 21.2666 72.8428 21.7256C72.3447 22.1748 71.749 22.5508 71.0557 22.8535C70.3721 23.1465 69.6006 23.293 68.7412 23.293C67.667 23.293 66.7246 23.083 65.9141 22.6631C65.1133 22.2432 64.4883 21.6816 64.0391 20.9785C63.5996 20.2656 63.3799 19.4697 63.3799 18.5908C63.3799 17.7412 63.5459 16.9941 63.8779 16.3496C64.21 15.6953 64.6885 15.1533 65.3135 14.7236C65.9385 14.2842 66.6904 13.9521 67.5693 13.7275C68.4482 13.5029 69.4297 13.3906 70.5137 13.3906H73.6631ZM82.877 10.1973V29.0938H80.1523V7.15039H82.6426L82.877 10.1973ZM93.5557 14.9434V15.251C93.5557 16.4033 93.4189 17.4727 93.1455 18.459C92.8721 19.4355 92.4717 20.2852 91.9443 21.0078C91.4268 21.7305 90.7871 22.292 90.0254 22.6924C89.2637 23.0928 88.3896 23.293 87.4033 23.293C86.3975 23.293 85.5088 23.127 84.7373 22.7949C83.9658 22.4629 83.3115 21.9795 82.7744 21.3447C82.2373 20.71 81.8076 19.9482 81.4854 19.0596C81.1729 18.1709 80.958 17.1699 80.8408 16.0566V14.416C80.958 13.2441 81.1777 12.1943 81.5 11.2666C81.8223 10.3389 82.2471 9.54785 82.7744 8.89355C83.3115 8.22949 83.9609 7.72656 84.7227 7.38477C85.4844 7.0332 86.3633 6.85742 87.3594 6.85742C88.3555 6.85742 89.2393 7.05273 90.0107 7.44336C90.7822 7.82422 91.4316 8.37109 91.959 9.08398C92.4863 9.79688 92.8818 10.6514 93.1455 11.6475C93.4189 12.6338 93.5557 13.7324 93.5557 14.9434ZM90.8311 15.251V14.9434C90.8311 14.1523 90.748 13.4102 90.582 12.7168C90.416 12.0137 90.1572 11.3984 89.8057 10.8711C89.4639 10.334 89.0244 9.91406 88.4873 9.61133C87.9502 9.29883 87.3105 9.14258 86.5684 9.14258C85.8848 9.14258 85.2891 9.25977 84.7812 9.49414C84.2832 9.72852 83.8584 10.0459 83.5068 10.4463C83.1553 10.8369 82.8672 11.2861 82.6426 11.7939C82.4277 12.292 82.2666 12.8096 82.1592 13.3467V17.1406C82.3545 17.8242 82.6279 18.4688 82.9795 19.0742C83.3311 19.6699 83.7998 20.1533 84.3857 20.5244C84.9717 20.8857 85.709 21.0664 86.5977 21.0664C87.3301 21.0664 87.96 20.915 88.4873 20.6123C89.0244 20.2998 89.4639 19.875 89.8057 19.3379C90.1572 18.8008 90.416 18.1855 90.582 17.4922C90.748 16.7891 90.8311 16.042 90.8311 15.251ZM99.7227 10.1973V29.0938H96.998V7.15039H99.4883L99.7227 10.1973ZM110.401 14.9434V15.251C110.401 16.4033 110.265 17.4727 109.991 18.459C109.718 19.4355 109.317 20.2852 108.79 21.0078C108.272 21.7305 107.633 22.292 106.871 22.6924C106.109 23.0928 105.235 23.293 104.249 23.293C103.243 23.293 102.354 23.127 101.583 22.7949C100.812 22.4629 100.157 21.9795 99.6201 21.3447C99.083 20.71 98.6533 19.9482 98.3311 19.0596C98.0186 18.1709 97.8037 17.1699 97.6865 16.0566V14.416C97.8037 13.2441 98.0234 12.1943 98.3457 11.2666C98.668 10.3389 99.0928 9.54785 99.6201 8.89355C100.157 8.22949 100.807 7.72656 101.568 7.38477C102.33 7.0332 103.209 6.85742 104.205 6.85742C105.201 6.85742 106.085 7.05273 106.856 7.44336C107.628 7.82422 108.277 8.37109 108.805 9.08398C109.332 9.79688 109.728 10.6514 109.991 11.6475C110.265 12.6338 110.401 13.7324 110.401 14.9434ZM107.677 15.251V14.9434C107.677 14.1523 107.594 13.4102 107.428 12.7168C107.262 12.0137 107.003 11.3984 106.651 10.8711C106.31 10.334 105.87 9.91406 105.333 9.61133C104.796 9.29883 104.156 9.14258 103.414 9.14258C102.73 9.14258 102.135 9.25977 101.627 9.49414C101.129 9.72852 100.704 10.0459 100.353 10.4463C100.001 10.8369 99.7129 11.2861 99.4883 11.7939C99.2734 12.292 99.1123 12.8096 99.0049 13.3467V17.1406C99.2002 17.8242 99.4736 18.4688 99.8252 19.0742C100.177 19.6699 100.646 20.1533 101.231 20.5244C101.817 20.8857 102.555 21.0664 103.443 21.0664C104.176 21.0664 104.806 20.915 105.333 20.6123C105.87 20.2998 106.31 19.875 106.651 19.3379C107.003 18.8008 107.262 18.1855 107.428 17.4922C107.594 16.7891 107.677 16.042 107.677 15.251Z" fill="white"/>
</svg>
